<svg xmlns="http://www.w3.org/2000/svg" viewBox="0 0 680 740" role="img" aria-labelledby="title desc"><title id="title">Q · 드레스덴 집중 · 프라하 왕복</title><desc id="desc">프라하 → 드레스덴 → 프라하. 소도시는 선택 · 기본 일정에 당일치기 없음 실선은 숙박 이동, 점선은 당일치기. 이동선은 개략이며 시간은 편도.</desc><defs><clipPath id="crop"><rect x="0" y="65" width="680" height="600" rx="12"/></clipPath><marker id="green" viewBox="0 0 10 10" refX="8" refY="5" markerWidth="3" markerHeight="3" orient="auto-start-reverse"><path d="M0 0 L10 5 L0 10Z" fill="#286249"/></marker><marker id="gold" viewBox="0 0 10 10" refX="8" refY="5" markerWidth="3" markerHeight="3" orient="auto-start-reverse"><path d="M0 0 L10 5 L0 10Z" fill="#b17533"/></marker></defs><style>text{font-family:-apple-system,BlinkMacSystemFont,'Apple SD Gothic Neo','Noto Sans KR',sans-serif;fill:#263a32}.title{font-size:27px;font-weight:750}.country{font-size:37px;font-weight:750;fill:#718b77;letter-spacing:8px}.neighbor{font-size:25px;fill:#7e8580}.label{font-size:26px;font-weight:750;paint-order:stroke;stroke:#fbf8ee;stroke-width:5px;stroke-linejoin:round}.time{font-size:26px;font-weight:650}.number{font-size:23px;fill:white;font-weight:750}.airport{font-size:25px;fill:#a44334;font-weight:750}.legend{font-size:22px}.mainline{stroke:#286249;stroke-width:6;stroke-linecap:round}.dayline{stroke:#b17533;stroke-width:4;stroke-dasharray:4 10;stroke-linecap:round}</style><rect width="680" height="740" rx="14" fill="#faf7ed"/><text x="24" y="40" class="title" text-anchor="start">Q · 드레스덴 집중 · 프라하 왕복</text><g clip-path="url(#crop)"><rect x="0" y="65" width="680" height="600" fill="#eff2e9"/>
<path d="M1156.1,444.3L1154.9,449.8L1151.3,456.2L1146.9,462.7L1143.2,470.7L1138.2,487.6L1135,495.3L1121.8,510.7L1120.8,532.1L1119.1,533.6L1089.2,540.9L1085.3,539.7L1081.2,535.6L1079,532.6L1077.6,530.4L1075,524.5L1071.5,520.3L1066.5,516.8L1061.8,512.9L1055.9,512.7L1039.7,518.3L1028.6,518.9L1021.1,517.1L1011.2,513.7L991.8,513.2L978.5,516.2L977.2,520.3L965,546.4L947.2,556L931.7,565.8L927.2,567.8L919.6,564.7L910.8,558.9L903.5,555.8L898.2,557.2L892.5,563.8L889.8,570.4L872.3,575.3L841.9,578.2L831.3,584.8L827.7,592.6L827.5,598.7L830.1,603.8L826.8,609.8L825.4,612.3L803.9,613.6L775.3,615.4L758.1,614.9L742,614.5L731,609.4L717.6,599.4L703.4,586L702.1,585.7L700,584.2L691.1,583.2L688.7,584L683.4,579.7L681.8,574L673.6,559.1L664.3,534.5L664,527.4L667.7,519.2L671,513L671.5,508.1L671.9,506.8L674.7,496.5L681.4,482.9L687.7,474.9L692.3,472.3L701.7,474.7L717.8,476.7L730.2,474.8L741.7,468.7L748,463.4L753.3,457.8L755.1,454.1L757.5,452.4L767,449.1L770.1,445.4L771.3,438.2L772.2,430.2L774.1,424.2L776.6,419.9L794.3,409.4L795.8,405.7L798.7,402.1L803.9,398.1L809,392.3L814.3,388.7L821.3,389.1L827.6,388.4L832.6,386.3L834.8,386.1L844,387.8L845.6,394.5L846.6,401.4L862.3,400.9L871,386L875.5,384.2L882.8,379.1L887.6,374.5L890.9,377.4L895.7,386.9L900.7,394.6L903.7,397.6L904,400L906.9,401.4L912.6,402.3L916.4,404.6L917.6,411.7L917.6,418.2L915.9,422.8L914.9,426.9L918.9,428.5L924.7,427L928.8,424.6L941,430L945.4,418.1L950.2,412L956.5,409.2L962.3,405.5L967.5,402.9L971.1,403L972.7,401.9L977.2,402.2L982.4,403.4L989.4,402L999.2,404.9L1005.3,410.4L1011.3,412.2L1018.1,411.9L1022.8,408.9L1029.6,398.5L1034.5,398.6L1042.2,397L1053.1,397.1L1078.2,399.3L1084.5,403.3L1099.9,408.4L1106.6,414.3L1109.6,421.4L1111.2,426.2L1127,433.7L1150.4,443.2Z" fill="#e6e8df" stroke="#fffdf5" stroke-width="3"/>
<path d="M1248.6,112.4L1253.2,122L1255,129.5L1253.1,135.4L1253.7,141.3L1257.9,147.5L1271,166.8L1277.4,185.2L1281.6,192.4L1291.1,201.7L1292,205.5L1288.1,209L1285.1,209.4L1282.5,210.4L1280.9,213.6L1283.4,217.1L1286.8,222.2L1291,236.7L1290.6,248.5L1287.4,251.5L1283.2,258.5L1280.4,264.9L1257.8,269.4L1252.4,276.2L1240,289.4L1231.5,297L1219,310.6L1199.3,334.1L1192,343.8L1186.6,351.9L1170.6,373.4L1165.7,382.3L1166.7,389.7L1171.8,407L1172.9,414.8L1172,422L1170.3,428.4L1170.6,431.3L1175.3,435.9L1182.8,443.2L1183.3,445.7L1182.2,448.8L1179.6,451.2L1170.2,448.7L1159.7,443.8L1156.1,444.3L1150.4,443.2L1127,433.7L1111.2,426.2L1109.6,421.4L1106.6,414.3L1099.9,408.4L1084.5,403.3L1078.2,399.3L1053.1,397.1L1042.2,397L1034.5,398.6L1029.6,398.5L1022.8,408.9L1018.1,411.9L1011.3,412.2L1005.3,410.4L999.2,404.9L989.4,402L982.4,403.4L977.2,402.2L972.7,401.9L971.1,403L967.5,402.9L962.3,405.5L956.5,409.2L950.2,412L945.4,418.1L941,430L928.8,424.6L924.7,427L918.9,428.5L914.9,426.9L915.9,422.8L917.6,418.2L917.6,411.7L916.4,404.6L912.6,402.3L906.9,401.4L904,400L903.7,397.6L900.7,394.6L895.7,386.9L890.9,377.4L887.6,374.5L882.8,379.1L875.5,384.2L871,386L862.3,400.9L846.6,401.4L845.6,394.5L844,387.8L834.8,386.1L834.5,382.2L832.6,372.4L814.2,353.1L812,345L812.7,341.9L811.4,336.7L807.4,333.6L792.8,329.9L789.1,332L785.7,329.9L780.4,325.2L771.2,321.4L770.2,319.5L766.9,316.2L765.1,315.7L763.9,317.7L761.2,320.6L751.8,324.2L748,322.7L744.6,319.6L740.7,312.8L735,306.9L730.3,304.7L727.6,301.6L727,299.2L737.4,294.3L739.7,289.3L738.4,280.1L736.8,278.9L732.7,282L724,284.8L716,286L711.9,286L689.1,269.2L674.3,264.1L665.5,262.6L664.6,264.3L668.5,273.7L675.4,285.3L675,288.4L666.9,293.2L662.2,295.2L656.7,299.3L652.1,304.8L648.1,307.3L644.7,306.7L641,304L631.5,286.9L619.6,273.7L618.2,270.8L614.5,270.1L609.3,267.1L607.5,263.1L610.1,258.9L613.7,255L620.2,252.6L622.1,250.4L623.3,247L625.6,242.6L625,241.1L620.5,236.1L613.7,231.4L595,234.9L589.9,237.4L587,234.2L584.8,229.4L580.1,228.5L573.6,224.2L565.9,219.9L558.4,218.7L542.8,212.5L536.8,212.2L533.3,210L529.7,205.4L526.6,200.3L525,189.9L513.5,185.1L502,182.2L501.2,183.7L501.7,194.2L501.1,199.8L493.5,203.2L486,203.6L486.4,201.8L495.4,183L499.4,171L504,149.3L498.5,132L497,123.9L494.4,120L478.7,111.6L477.5,108.7L479.9,97.2L478.7,92.4L474.9,87.3L469.9,77.1L468,68.5L474.4,58.3L475.9,50.8L478.7,40.5L480.7,34.9L481.1,33.4L476.9,29.4L475.9,23.7L477,15.6L474.8,9.6L469.2,5.7L465.6,0.5L463.9,-6L465.2,-16.1L469.6,-30L460.4,-46.7L437.9,-66.3L427,-80L427.9,-87.9L432.6,-95L441.3,-101.4L447.8,-112.8L451.5,-126.3L451.6,-128.8L451.8,-138.5L441.8,-178.2L440.1,-188.2L438.9,-200.2L438.3,-203.5L458.1,-195.1L466.4,-190.3L465.4,-195.7L463.7,-200.3L464.8,-207L464.3,-217.3L446.3,-222.5L434.4,-224.2L433,-231.4L434.2,-236L437.5,-233.3L449.2,-232.2L477.9,-246L527.6,-264L580.6,-280.9L593,-282.7L605.4,-286.3L610,-292.6L614.6,-296.9L621.8,-308.1L637.8,-325.5L666,-331.9L676.6,-340.2L698.6,-351.8L749,-364.9L770.1,-367.8L790.7,-368.2L809,-357.8L828.5,-345.1L832,-337.4L821.4,-342.2L806.1,-353.6L800.5,-354.1L813.5,-319.4L820.7,-307.2L835.1,-298L847.3,-295L884.6,-300.5L897.9,-307.7L901.7,-311.4L905.2,-309.6L929.5,-307.6L954.1,-305.7L993.7,-303.6L1034.9,-301.3L1077.7,-299.1L1124,-296.6L1172.9,-295.1L1175.8,-296.1L1180.8,-301.9L1186.9,-301.2L1194.1,-297.6L1197.5,-294.9L1198.9,-291.8L1199.8,-288.3L1203.7,-287.6L1210.9,-284.9L1220.6,-278.8L1228.2,-272.9L1235.4,-264.5L1237.8,-254.9L1238,-244.2L1237.5,-237.2L1238.1,-234.4L1248,-184.5L1264.5,-136.7L1270.6,-113.7L1273,-101.5L1274.9,-83.8L1275.5,-71.5L1275.5,-64.5L1274.2,-55L1269.3,-49.3L1237.7,-33.3L1231.7,-28.2L1222.4,-15.7L1213.8,-2.9L1211.8,1.5L1211.3,4.4L1213.2,8.6L1224.5,15.5L1235.8,21L1239.6,25.1L1247.9,30.4L1251,35.1L1252.7,39.2L1252.6,48.7L1248.8,61.8L1250.4,71.7L1246.5,78.3L1243.3,85.6L1242.9,98.3Z" fill="#e6e8df" stroke="#fffdf5" stroke-width="3"/>
<path d="M27.8,646.2L12.7,636.6L-1.8,627.3L-6.6,627.3L-27.9,629.2L-28.5,628.4L-32.3,623.1L-35.6,621.4L-37.5,622.3L-38.9,623.8L-41.2,623.6L-50.7,615L-54.7,613.8L-60.1,614.9L-66.5,619.5L-69.3,625.1L-68.5,628.4L-65.1,629.8L-56.4,628.8L-55.1,629.8L-54.8,631.6L-55.8,633.3L-62.9,634.8L-64.9,636.9L-67,637.4L-68.4,637.8L-75.9,635.5L-87.1,635.5L-96.2,639.5L-110.6,641.1L-130.5,640.3L-137.6,637.4L-142,635.6L-145.1,626.9L-144.3,614.1L-139.6,597L-138.3,584.5L-140.4,576.5L-137.5,564.5L-129.8,548.4L-124.7,531.5L-122.1,513.6L-118.4,501.9L-111,493.7L-93.6,470.7L-92.1,469L-92.6,457.5L-97.3,455.8L-104.2,452.5L-121.7,448.4L-138,445.8L-145.4,442.5L-151.9,433.8L-156,433.7L-163.8,436.8L-173.7,438.9L-180.8,437.1L-185.3,437.4L-187.8,439.1L-189.1,437.6L-190.9,430.2L-194.6,428.2L-200.4,426.5L-204,427.2L-206.5,430.9L-210.4,433.6L-213.9,432.7L-225,415.4L-227.9,411.6L-228.6,408.1L-231.4,401.6L-238,395.2L-244.6,393.1L-247.8,393.9L-247.5,385.9L-244.9,374.2L-242.4,368.2L-239.2,363.2L-235.7,359.8L-234.9,353.5L-235.5,347.6L-239.5,346.7L-249.6,342.3L-255.5,337.7L-259.9,331.9L-265.7,323.9L-268.2,315.8L-268.3,307.7L-267.6,304.1L-267.2,301.6L-262.5,289L-246.1,277.7L-247.9,266.3L-248.1,259.2L-252.1,254.7L-260.1,252.8L-262.2,249.6L-263.1,246.5L-257.2,239.5L-264.3,233.9L-267.3,228.2L-277.2,220.9L-278.2,218.5L-273.5,197.3L-277.1,191.1L-281.6,187.9L-286.8,186.3L-289.2,183.4L-290.1,180L-289.1,177.9L-283,178.5L-281.1,176.4L-266.4,163.8L-265.8,161.4L-267.9,160.1L-270.6,159.3L-271.2,156.7L-271.1,153.2L-263.3,135.1L-261,127.4L-260.5,121.9L-260.9,116.5L-265.4,107.9L-269.8,101.1L-270,95.7L-273.1,92.8L-282.2,78.3L-282.1,72.6L-277,68.2L-269.9,65.4L-267.5,63.1L-263.3,61.7L-251.9,65.9L-246.9,69.5L-245.4,68.8L-240.9,64.8L-232.8,65.4L-213.4,57.4L-210.5,53.6L-208.3,49.5L-208.1,47.7L-215.7,39.8L-215.9,36.9L-214.9,33.6L-212.8,31L-208.3,29.2L-203.6,25.7L-193,15.9L-189.3,7.3L-188.2,-2L-188,-8.9L-190.8,-14.4L-193.8,-18L-197.8,-17.4L-205.5,-17.7L-212.8,-20.8L-216.8,-25.8L-217.7,-30.2L-215.9,-33L-215.4,-36.4L-216.5,-39.8L-216.1,-42.7L-212.8,-45L-189.9,-45L-188.1,-47.5L-186.6,-60.9L-180.9,-81.3L-175.4,-92.7L-174.5,-97.5L-174.6,-124.6L-173.9,-138.3L-177.8,-144.8L-186.4,-151.9L-184.6,-166.7L-181.7,-178.3L-173.1,-192.5L-166.3,-196.5L-136.5,-198.8L-103.5,-197.8L-89.8,-176.3L-94.9,-165.3L-86.9,-160.1L-83.1,-162L-80.1,-171.6L-78.2,-182.2L-75.4,-185.5L-65.2,-177.5L-61.6,-172.1L-61.4,-154.6L-57.6,-178.3L-60.4,-194.9L-58.5,-211.1L-54.4,-219.5L-50.6,-224.9L-26.5,-219.1L0.2,-222.1L10.3,-215.8L33.1,-184.6L40.7,-179.5L50.4,-177.9L37.1,-184.6L9.4,-222.5L1.1,-227.3L-11.6,-228.7L-19.5,-232.4L-24.5,-238.2L-26,-243.3L-25.7,-281.9L-30.5,-287.6L-36.7,-289.6L-40.5,-287L-48.4,-286.9L-50.1,-295.7L-48.1,-302.2L-32.3,-306.7L-21.8,-312.6L-21.3,-323.2L-27.9,-331.5L-35.9,-346.8L-45.2,-361.2L-46.2,-378L-46.2,-378L-30,-377.7L-26,-377L-1.5,-369.2L4.5,-363.6L12,-363.4L25.6,-368.5L35.8,-370.8L39.7,-367.6L45.2,-366.3L46.5,-366.3L47.1,-363.5L59.7,-359.5L65.1,-353.2L71,-343.5L71.6,-329.6L64,-319.7L57.7,-313.4L81.5,-315.7L83.9,-310L87.5,-303.9L100.3,-308.3L132.5,-290.1L152,-298.9L156.9,-299.5L161.4,-284.8L156.5,-270.1L139.4,-254.4L143.2,-244.7L148.6,-242.6L164.8,-244.6L190.4,-235.1L195.8,-238.1L216.5,-260L224.8,-264.8L252.1,-268.2L257.1,-276.7L268.2,-285.3L275.3,-294.7L292.4,-312.6L310,-309.4L320.3,-305.9L331.6,-304.2L341.9,-285.1L368,-264.1L391.9,-265.9L400.4,-246.1L404.2,-221.7L411.6,-214.1L418,-209.1L437.5,-203.9L438.3,-203.5L438.9,-200.2L440.1,-188.2L441.8,-178.2L451.8,-138.5L451.6,-128.8L451.5,-126.3L447.8,-112.8L441.3,-101.4L432.6,-95L427.9,-87.9L427,-80L437.9,-66.3L460.4,-46.7L469.6,-30L465.2,-16.1L463.9,-6L465.6,0.5L469.2,5.7L474.8,9.6L477,15.6L475.9,23.7L476.9,29.4L481.1,33.4L480.7,34.9L478.7,40.5L475.9,50.8L474.4,58.3L468,68.5L469.9,77.1L474.9,87.3L478.7,92.4L479.9,97.2L477.5,108.7L478.7,111.6L494.4,120L497,123.9L498.5,132L504,149.3L499.4,171L495.4,183L486.4,201.8L486,203.6L485,205.8L482.3,209.1L478.6,209.6L472.9,207.2L469.1,204L469.9,195.9L467.5,195.4L464.4,190.4L463.2,185L459.8,182.8L447.7,180.5L443.6,179L440.4,180.1L438,183.9L439.6,187.3L441.8,190.7L448.5,196L447.9,198.1L433.3,203.3L424.2,208.5L415.7,211.5L407.1,217L390,223.1L377.4,224.7L374.8,226.3L370.1,236.7L367,238.9L363.9,237.8L361.6,236.1L358.7,237.5L355.7,240.9L352.5,242.3L349.8,242.2L344.9,251.2L330.6,254L328.9,258.7L326.3,264.1L324.2,265.4L317.7,263.3L308.8,262.1L303.7,265.1L297.6,266.7L290.1,267.2L281.7,273.1L273.6,283.5L269,292.7L266.5,296L262.5,287.4L257.6,281.5L254.2,278.4L251.1,278.4L250.3,279.6L250.2,284.1L253.6,291.6L257.6,296.7L258.3,300.5L260.5,307.3L266.4,314.8L275.8,320.7L282.1,326.5L286.9,334.5L286.9,337L285.6,340.3L283.4,343.3L281.5,347.4L276.3,355.5L277.9,359L282.1,363.5L285.8,368.9L290.7,377.6L297.3,392.7L301.5,399L307.3,405.4L313,410.3L321.9,410.1L331.2,419.5L341.3,433L348.9,439.2L354.2,441.1L358.6,445.9L362.4,452.9L363.9,456.9L367.4,459.8L376.6,459.3L388.5,470.2L395.9,478.2L399.8,484.7L398.8,487.2L398.3,495.3L398.4,503.8L397.2,508.3L391.9,514.2L389.2,515.4L387.7,516.7L371.4,509L370.1,510.3L369,511.3L364.7,533.5L361.6,537.8L357.2,541.7L347.8,545.6L341.3,547.1L336.3,549.1L320.3,558.4L313.1,563.9L308.4,570.9L308.4,575L316.2,586.8L325.1,599L325.2,609.7L321.2,617.7L320.3,620.7L322.9,621.9L327.9,622.3L332.1,623.7L333.9,629.3L333.3,639.1L331.9,648.2L330.4,652.1L326.4,652.4L318.7,648.4L312.6,643.9L310.3,641L310.2,637.7L311.5,635.5L309.3,631.4L301.9,627.5L294,629.2L288.1,631.8L284.3,631.6L280.2,627.9L274,625.1L265.7,623.2L260.6,621.2L259.5,622.4L260.1,630.4L258.6,633.9L217.9,638.6L205.5,642.9L196.5,648.5L189.8,650.9L188.2,654.4L181.6,658.9L174.1,660.4L172.4,658.9L167.6,661L159.4,663L154.1,662.3L151.6,658.7L146.6,653.1L144.6,649.2L144.8,646.7L133.4,646.2L126.2,643.2L110.9,643.9L107.2,642.7L106.4,644L104.1,659.9L101.1,666.4L96.2,673.2L89.9,676.9L84.9,677.6L85.2,672.7L86.4,666.8L82.8,665.4L77.4,664.7L74.8,662.9L75.5,658.4L74.3,655.8L72,652.7L66.6,648.6L55.1,642.6L47.3,639.6L44.4,642.8L38.8,646L30,644.9ZM390.6,-300L392.8,-290L390.5,-284.9L380.7,-293.4L371,-293.2L365.1,-280.2L360.8,-279.7L345.6,-291.5L343.2,-297.3L342.7,-302.1L344.9,-318.8L344.5,-324.1L349.2,-329.8L350,-338.2L358.4,-347L365.8,-347.3L368.2,-339.9L371.7,-334.7L384.3,-329L386.2,-326.4L387.3,-322.8L381.5,-315.7L379.5,-312.1L381.3,-306.3ZM434.2,-236L433,-231.4L434.4,-224.2L430.8,-224.8L420,-223.1L409.4,-225.5L407.4,-234.3L409.1,-242.8L404.8,-248.6L400.9,-252.1L400.3,-257L400.9,-262.1L419.2,-248.4ZM180.3,-305.2L167,-305L161.9,-310.9L156.8,-312.4L159.5,-319.8L163.1,-322.5L176,-317.7L180.1,-308.3ZM-77.6,-360.5L-79.6,-357.5L-78.7,-378.7L-69.2,-401.5L-65.2,-401L-69.3,-394.8L-70.5,-390.5L-72.1,-381.9L-71.4,-377.5L-49.7,-376.2L-52.2,-372.3L-74.2,-369.6ZM-53.3,-349.3L-56.7,-345.6L-65,-346.1L-69.6,-349.5L-68.1,-353.2L-63.7,-356L-60.1,-356.5L-54.6,-354.7Z" fill="#d8e6d7" stroke="#fffdf5" stroke-width="3"/>
<path d="M834.8,386.1L832.6,386.3L827.6,388.4L821.3,389.1L814.3,388.7L809,392.3L803.9,398.1L798.7,402.1L795.8,405.7L794.3,409.4L776.6,419.9L774.1,424.2L772.2,430.2L771.3,438.2L770.1,445.4L767,449.1L757.5,452.4L755.1,454.1L753.3,457.8L748,463.4L741.7,468.7L730.2,474.8L717.8,476.7L701.7,474.7L692.3,472.3L687.7,474.9L681.4,482.9L674.7,496.5L671.9,506.8L669.7,503.9L665.9,493L661.5,491.6L655.5,490.6L651,489L641.3,482.7L636.4,480.8L630.7,480.3L625.2,484L621.1,488.4L608.3,488.3L594.2,486.3L574.1,471.9L568.9,471.7L563.3,472.4L554.5,469L537.5,459.6L529.5,457.4L524.5,458.7L519.9,460.8L516.6,461.1L514.7,458L508.3,454.2L502,453.8L500.1,456.1L498,476.7L495.8,484.1L487.1,483.8L484,487.3L477.1,497.2L475.8,506.7L463.9,504.9L458.2,503.3L453.2,504.5L447.7,509.7L432.3,509.4L420.1,506.3L414.9,494.5L409.3,489.8L402.3,485.6L399.8,484.7L395.9,478.2L388.5,470.2L376.6,459.3L367.4,459.8L363.9,456.9L362.4,452.9L358.6,445.9L354.2,441.1L348.9,439.2L341.3,433L331.2,419.5L321.9,410.1L313,410.3L307.3,405.4L301.5,399L297.3,392.7L290.7,377.6L285.8,368.9L282.1,363.5L277.9,359L276.3,355.5L281.5,347.4L283.4,343.3L285.6,340.3L286.9,337L286.9,334.5L282.1,326.5L275.8,320.7L266.4,314.8L260.5,307.3L258.3,300.5L257.6,296.7L253.6,291.6L250.2,284.1L250.3,279.6L251.1,278.4L254.2,278.4L257.6,281.5L262.5,287.4L266.5,296L269,292.7L273.6,283.5L281.7,273.1L290.1,267.2L297.6,266.7L303.7,265.1L308.8,262.1L317.7,263.3L324.2,265.4L326.3,264.1L328.9,258.7L330.6,254L344.9,251.2L349.8,242.2L352.5,242.3L355.7,240.9L358.7,237.5L361.6,236.1L363.9,237.8L367,238.9L370.1,236.7L374.8,226.3L377.4,224.7L390,223.1L407.1,217L415.7,211.5L424.2,208.5L433.3,203.3L447.9,198.1L448.5,196L441.8,190.7L439.6,187.3L438,183.9L440.4,180.1L443.6,179L447.7,180.5L459.8,182.8L463.2,185L464.4,190.4L467.5,195.4L469.9,195.9L469.1,204L472.9,207.2L478.6,209.6L482.3,209.1L485,205.8L486,203.6L493.5,203.2L501.1,199.8L501.7,194.2L501.2,183.7L502,182.2L513.5,185.1L525,189.9L526.6,200.3L529.7,205.4L533.3,210L536.8,212.2L542.8,212.5L558.4,218.7L565.9,219.9L573.6,224.2L580.1,228.5L584.8,229.4L587,234.2L589.9,237.4L595,234.9L613.7,231.4L620.5,236.1L625,241.1L625.6,242.6L623.3,247L622.1,250.4L620.2,252.6L613.7,255L610.1,258.9L607.5,263.1L609.3,267.1L614.5,270.1L618.2,270.8L619.6,273.7L631.5,286.9L641,304L644.7,306.7L648.1,307.3L652.1,304.8L656.7,299.3L662.2,295.2L666.9,293.2L675,288.4L675.4,285.3L668.5,273.7L664.6,264.3L665.5,262.6L674.3,264.1L689.1,269.2L711.9,286L716,286L724,284.8L732.7,282L736.8,278.9L738.4,280.1L739.7,289.3L737.4,294.3L727,299.2L727.6,301.6L730.3,304.7L735,306.9L740.7,312.8L744.6,319.6L748,322.7L751.8,324.2L761.2,320.6L763.9,317.7L765.1,315.7L766.9,316.2L770.2,319.5L771.2,321.4L780.4,325.2L785.7,329.9L789.1,332L792.8,329.9L807.4,333.6L811.4,336.7L812.7,341.9L812,345L814.2,353.1L832.6,372.4L834.5,382.2Z" fill="#f0d1c8" stroke="#fffdf5" stroke-width="3"/>
<path d="M28.1,678.6L35.2,663.1L36.6,653.5L30.4,647.8L27.8,646.2L30,644.9L38.8,646L44.4,642.8L47.3,639.6L55.1,642.6L66.6,648.6L72,652.7L74.3,655.8L75.5,658.4L74.8,662.9L77.4,664.7L82.8,665.4L86.4,666.8L85.2,672.7L84.9,677.6L89.9,676.9L96.2,673.2L101.1,666.4L104.1,659.9L106.4,644L107.2,642.7L110.9,643.9L126.2,643.2L133.4,646.2L144.8,646.7L144.6,649.2L146.6,653.1L151.6,658.7L154.1,662.3L159.4,663L167.6,661L172.4,658.9L174.1,660.4L181.6,658.9L188.2,654.4L189.8,650.9L196.5,648.5L205.5,642.9L217.9,638.6L258.6,633.9L260.1,630.4L259.5,622.4L260.6,621.2L265.7,623.2L274,625.1L280.2,627.9L284.3,631.6L288.1,631.8L294,629.2L301.9,627.5L309.3,631.4L311.5,635.5L310.2,637.7L310.3,641L312.6,643.9L318.7,648.4L326.4,652.4L330.4,652.1L331.9,648.2L333.3,639.1L333.9,629.3L332.1,623.7L327.9,622.3L322.9,621.9L320.3,620.7L321.2,617.7L325.2,609.7L325.1,599L316.2,586.8L308.4,575L308.4,570.9L313.1,563.9L320.3,558.4L336.3,549.1L341.3,547.1L347.8,545.6L357.2,541.7L361.6,537.8L364.7,533.5L369,511.3L370.1,510.3L371.4,509L387.7,516.7L389.2,515.4L391.9,514.2L397.2,508.3L398.4,503.8L398.3,495.3L398.8,487.2L399.8,484.7L402.3,485.6L409.3,489.8L414.9,494.5L420.1,506.3L432.3,509.4L447.7,509.7L453.2,504.5L458.2,503.3L463.9,504.9L475.8,506.7L477.1,497.2L484,487.3L487.1,483.8L495.8,484.1L498,476.7L500.1,456.1L502,453.8L508.3,454.2L514.7,458L516.6,461.1L519.9,460.8L524.5,458.7L529.5,457.4L537.5,459.6L554.5,469L563.3,472.4L568.9,471.7L574.1,471.9L594.2,486.3L608.3,488.3L621.1,488.4L625.2,484L630.7,480.3L636.4,480.8L641.3,482.7L651,489L655.5,490.6L661.5,491.6L665.9,493L669.7,503.9L671.9,506.8L671.5,508.1L671,513L667.7,519.2L664,527.4L664.3,534.5L673.6,559.1L681.8,574L683.4,579.7L688.7,584L683.7,589.5L682.7,597.6L679.4,601.2L678.5,605.9L679.9,610.1L679.9,615.3L681.7,622.6L673.6,624.2L664,623.9L660.6,624.3L657.4,626.3L654.1,625.3L645.4,618.5L640.5,617L637,617.5L634.4,620.4L630,624.2L625.8,626.9L626.7,629.2L644.7,635.3L647.9,644.7L644.4,652.3L643.3,656L639,658.9L633.9,661.5L627.6,662.2L626.9,666.3L629.4,678.3L627.4,680.9L625.4,684.7L627.3,694.6L631.1,695.3L632,697.5L631.3,701.5L630.6,705.8L629.2,710.3L628.6,712.3L626,713.5L618,712.9L611.1,716.7L597.3,730.5L592.5,732.8L587.2,738.3L587.6,750.4L586.8,751.5L585.6,754L569,749.7L568.5,749.8L557.4,751.4L549.8,756.9L540.6,760.1L521.4,758.4L502.6,760.5L498.2,762.1L493.3,763L488.7,766.3L486.1,770.8L481.5,776.5L474.8,781L467.6,784.4L465.9,787.4L463.5,789L459.5,786.8L456.3,787L452.3,785.5L439,783.9L424.5,781.2L417.6,778.6L409.7,776.6L401.2,775L393.7,774.6L389.8,773.8L371.6,769.4L359.6,769.1L343.8,767.2L312.3,760.5L303.1,757.8L294.4,757L284,754.6L276.1,750.8L271.1,743.6L265.7,734L255.8,721.4L253.8,715.1L256.8,709.6L259.9,705.4L259.6,703.6L257.2,702.7L239.8,708.1L223,714.9L216.4,715.1L210,713.6L201.5,713.5L193.3,715.3L177,716.2L167.4,721.2L161.3,731L158,738.9L155.2,741.4L149.5,742.4L140.9,741.6L134.9,739.4L128.8,732.6L119.3,731.7L110.6,731.5L108.3,730.3L108.5,725.9L105.1,717.7L99.4,715.1L84.7,730.6L80.7,732L68.8,727.7L58.5,721.1L57.3,716.2L55.7,712.2L47,708.4L36.1,705.8L32.7,705.8L34,703.5L35.3,699.5L34.5,696.3L32,693L30.6,689.5L30.2,686.1L29.4,683.3L28.9,680.7Z" fill="#e6e8df" stroke="#fffdf5" stroke-width="3"/>
<text x="60" y="285" class="country" text-anchor="start">독일</text>
<text x="507" y="356" class="country" text-anchor="start">체코</text>
<text x="455" y="615" class="neighbor" text-anchor="start">오스트리아</text>
<text x="552" y="114" class="neighbor" text-anchor="start">폴란드</text>
<text x="31" y="105" class="legend" text-anchor="start">↑ 북</text>
<path d="M442.0912378277463,285.7932145196267 Q422.7628482844026,242.86962359291147 403.4344587410589,199.94603266619626" fill="none" class="mainline" marker-end="url(#green)" marker-start="url(#green)"/>
<g transform="translate(530,242)"><rect x="-98.19999999999999" y="-19" width="196.39999999999998" height="29" rx="10" fill="#fffdf4" opacity=".96"/><text x="0" y="2" class="time" text-anchor="middle">열차 약 2시간 15분</text></g>
<circle cx="452.3559957854561" cy="308.58871284867473" r="24" fill="#c96355" stroke="#fffdf5" stroke-width="3"/>
<text x="452.3559957854561" y="316.58871284867473" class="number" text-anchor="middle">1·3</text>
<text x="482.3559957854561" y="314.58871284867473" class="label" text-anchor="start">프라하</text>
<text x="482.3559957854561" y="281.58871284867473" class="airport" text-anchor="start">IN · OUT</text>
<circle cx="393.16970078334907" cy="177.1505343371482" r="24" fill="#c96355" stroke="#fffdf5" stroke-width="3"/>
<text x="393.16970078334907" y="185.1505343371482" class="number" text-anchor="middle">2</text>
<text x="423.16970078334907" y="183.1505343371482" class="label" text-anchor="start">드레스덴</text>
</g><path d="M26 690 H75" class="mainline" marker-end="url(#green)"/><text x="88" y="698" class="legend" text-anchor="start">숙박 이동</text><path d="M247 690 H296" class="dayline" marker-end="url(#gold)"/><text x="309" y="698" class="legend" text-anchor="start">당일 왕복</text><text x="25" y="727" class="legend" text-anchor="start">실제 도시 위치 · 이동선은 개략 · 시간은 편도</text></svg>